# xmcd
#
# Track frame offsets:
#	150
#	11800
#	24170
#	38614
#	51442
#	63190
#	74542
#	88677
#	102467
#	115842
#	129590
#	141217
#	155262
#	168900
#	180950
#	195302
#	208782
#	222322
#	237092
#	249135
#
# Disc length: 3512 seconds
#
# Revision: 0
# Processed by: cddbd v1.5PL3 Copyright (c) Steve Scherf et al.
# Submitted via: dBpowerAMP V4.0
#
DISCID=0b0db614
DTITLE=Various Artist - Lady Luck Blues
DYEAR=1900
DGENRE=Blues
TTITLE0=Billie Holiday - Riffin' the Scotch
TTITLE1=Billie Holiday - Your Mother's son in law
TTITLE2=Billie Holiday - I cried for you
TTITLE3=Billie Holiday - Did I remember ?
TTITLE4=Billie Holiday - Sentimental and Melancholy
TTITLE5=Billie Holiday - How could you ?
TTITLE6=Billie Holiday - I'll get by
TTITLE7=Billie Holiday - I'l never be the same
TTITLE8=Billie Holiday - If dreams come true
TTITLE9=Billie Holiday - Everybody's laughing
TTITLE10=Billie Holiday - Say it with a kiss
TTITLE11=Billie Holiday - April in my heart
TTITLE12=Billie Holiday - Some other spring
TTITLE13=Billie Holiday - I hear music
TTITLE14=Billie Holiday - The same old story
TTITLE15=Billie Holiday - Wherever you are
TTITLE16=Billie Holiday - My old flame
TTITLE17=Billie Holiday - Trav'lin' light
TTITLE18=Billie Holiday - You better go now
TTITLE19=Billie Holiday - What is this thing
EXTD=
EXTT0=
EXTT1=
EXTT2=
EXTT3=
EXTT4=
EXTT5=
EXTT6=
EXTT7=
EXTT8=
EXTT9=
EXTT10=
EXTT11=
EXTT12=
EXTT13=
EXTT14=
EXTT15=
EXTT16=
EXTT17=
EXTT18=
EXTT19=
PLAYORDER=
